<?xml version="1.0" standalone="no"?>
<!DOCTYPE svg PUBLIC "-//W3C//DTD SVG 20010904//EN"
 "http://www.w3.org/TR/2001/REC-SVG-20010904/DTD/svg10.dtd">
<svg version="1.0" xmlns="http://www.w3.org/2000/svg"
 width="898.000000pt" height="898.000000pt" viewBox="0 0 898.000000 898.000000"
 preserveAspectRatio="xMidYMid meet">
<metadata>
Created by potrace 1.11, written by Peter Selinger 2001-2013
</metadata>
<g transform="translate(0.000000,898.000000) scale(0.100000,-0.100000)"
fill="#000000" stroke="none">
<path d="M3936 8813 c-2 -2 -23 -6 -47 -8 -24 -2 -44 -4 -44 -5 0 -1 -17 -4
-39 -6 -21 -3 -65 -11 -97 -18 -32 -8 -60 -12 -63 -9 -2 3 -11 1 -18 -3 -7 -4
-19 -9 -28 -10 -8 -1 -37 -7 -65 -14 -74 -17 -87 -21 -115 -26 -14 -3 -34 -8
-45 -11 -11 -4 -23 -8 -27 -9 -5 -1 -10 -3 -13 -4 -6 -3 -10 -4 -50 -14 -16
-4 -66 -20 -110 -34 -44 -14 -82 -27 -85 -27 -3 -1 -12 -4 -20 -8 -8 -3 -42
-15 -75 -27 -155 -55 -466 -195 -473 -212 -2 -5 -11 -8 -20 -8 -9 0 -28 -9
-42 -20 -14 -11 -28 -20 -32 -20 -37 -1 -513 -313 -613 -401 -11 -10 -53 -45
-93 -79 -111 -91 -124 -103 -292 -270 -142 -143 -230 -236 -230 -245 0 -2 -10
-15 -23 -28 -12 -13 -29 -32 -37 -43 -139 -176 -162 -207 -234 -314 -16 -25
-34 -48 -39 -51 -5 -3 -9 -10 -10 -15 0 -5 -20 -39 -44 -77 -24 -37 -43 -70
-43 -73 0 -3 -9 -18 -19 -33 -11 -14 -43 -71 -71 -126 -29 -55 -56 -104 -61
-109 -5 -6 -9 -16 -9 -24 0 -8 -10 -28 -22 -45 -13 -18 -21 -32 -19 -32 2 0
-6 -19 -18 -42 -12 -24 -19 -43 -15 -43 4 0 2 -6 -4 -13 -22 -26 -165 -404
-177 -469 -2 -10 -6 -22 -9 -27 -5 -8 -55 -190 -60 -221 -2 -8 -6 -22 -9 -30
-3 -8 -10 -44 -17 -80 -7 -36 -16 -78 -20 -95 -5 -16 -11 -52 -14 -80 -6 -47
-12 -83 -16 -95 -1 -3 -2 -17 -2 -32 -1 -16 -5 -28 -10 -28 -5 0 -6 -4 -3 -10
3 -5 1 -43 -4 -84 -31 -220 -35 -779 -7 -936 3 -14 7 -52 10 -85 3 -33 7 -69
10 -80 2 -11 7 -42 10 -68 4 -27 10 -59 12 -70 3 -12 7 -37 10 -56 2 -19 9
-55 15 -80 6 -25 13 -57 15 -70 11 -58 36 -154 64 -251 17 -58 32 -109 33
-115 2 -5 5 -14 9 -20 3 -5 9 -26 13 -45 4 -19 11 -41 16 -50 7 -15 21 -50 23
-60 10 -51 195 -463 255 -570 80 -139 156 -266 163 -268 4 -2 8 -8 8 -14 0 -8
79 -129 113 -173 4 -5 47 -62 95 -125 81 -107 105 -137 157 -196 11 -12 40
-45 65 -74 61 -69 190 -199 290 -290 45 -41 92 -84 104 -95 11 -11 38 -32 58
-47 20 -15 42 -34 50 -41 57 -57 341 -254 528 -367 72 -43 382 -201 440 -224
25 -10 59 -24 75 -31 48 -22 109 -48 120 -51 6 -1 71 -24 145 -49 125 -44 312
-100 363 -109 12 -3 22 -5 22 -6 0 -1 9 -3 20 -5 11 -1 43 -8 70 -15 28 -6 61
-14 75 -16 14 -2 48 -9 75 -14 28 -6 66 -13 85 -15 137 -19 193 -25 198 -20
10 9 8 1869 -1 1883 -5 6 -6 12 -1 12 11 0 11 930 0 948 -4 6 -4 12 1 12 10 0
10 931 -1 948 -4 6 -4 12 1 12 10 0 10 931 -1 948 -4 6 -4 12 1 12 10 0 9 292
-1 308 -4 7 -4 12 1 12 10 0 10 931 -1 948 -4 6 -4 12 1 12 10 0 9 292 -1 308
-4 7 -4 12 1 12 10 0 10 931 -1 948 -4 6 -4 12 1 12 10 0 9 292 -1 308 -4 7
-4 12 1 12 8 0 12 949 3 951 -20 4 -60 5 -64 2z m-910 -4303 c0 -1661 -3
-3020 -7 -3020 -19 0 -280 147 -291 164 -5 7 -8 7 -8 1 0 -6 -3 -6 -8 1 -4 5
-25 21 -47 34 -82 49 -328 237 -411 315 -106 98 -251 248 -314 324 -19 24 -41
49 -48 57 -7 7 -37 46 -67 86 -30 40 -58 78 -63 83 -11 14 -133 202 -159 245
-50 84 -115 212 -163 315 -17 39 -38 82 -46 98 -9 15 -13 27 -9 27 3 0 -1 12
-9 28 -24 48 -116 328 -131 402 -2 8 -4 15 -5 15 -1 0 -3 7 -5 16 -1 10 -10
50 -20 90 -9 41 -19 88 -21 104 -3 17 -7 44 -10 60 -5 33 -20 140 -28 197 -22
162 -22 597 -1 708 3 14 7 45 10 70 9 71 34 227 46 278 12 53 17 74 24 102 3
11 7 30 10 41 2 12 12 47 21 78 10 31 19 65 21 75 2 11 8 25 14 33 6 7 9 13 6
13 -6 0 56 178 74 212 6 10 12 27 14 37 5 29 140 303 185 376 22 37 40 69 40
72 0 9 143 218 151 221 5 2 9 8 9 13 0 5 35 53 77 107 72 90 109 133 173 202
14 15 39 42 56 61 47 51 230 218 293 267 19 15 48 39 65 53 17 14 54 41 81 60
28 19 52 36 55 39 12 12 160 107 242 155 36 22 193 104 199 105 3 0 5 -1359 5
-3020z"/>
<path d="M4995 4510 l0 -4311 65 7 c36 4 75 8 88 8 12 1 22 3 22 6 0 3 10 5
23 6 20 0 55 6 117 19 14 3 41 8 60 11 19 3 62 13 95 21 33 8 67 17 75 18 8 2
15 4 15 5 0 1 9 3 20 4 60 9 374 108 460 146 22 9 58 23 80 30 22 7 70 28 108
46 37 18 67 31 67 28 0 -6 390 195 400 207 3 3 39 25 80 50 41 24 77 46 80 49
3 3 32 23 65 45 68 44 232 163 285 207 19 16 44 37 56 46 104 85 269 237 343
315 111 116 140 148 181 197 25 29 50 58 55 64 80 85 395 534 395 562 0 3 8
18 19 32 52 74 192 357 263 532 49 120 51 124 54 135 4 16 44 129 51 145 4 8
7 20 8 25 1 6 14 49 29 97 15 48 29 98 32 110 3 13 6 28 7 33 2 6 6 16 10 23
5 6 6 12 3 12 -3 0 -1 11 4 24 5 13 12 43 15 67 4 24 8 46 10 50 2 3 7 21 10
40 9 48 13 64 15 64 1 0 4 14 5 30 2 17 5 44 8 60 6 28 9 50 22 123 2 15 7 52
10 82 3 30 8 70 10 89 12 95 18 248 18 446 -1 177 -7 380 -13 380 -1 0 -3 18
-5 40 -2 22 -6 60 -9 85 -2 25 -7 59 -9 75 -3 17 -9 53 -12 80 -4 28 -9 61
-12 75 -2 14 -6 36 -8 50 -2 14 -6 36 -9 50 -3 14 -11 50 -17 80 -6 30 -17 78
-25 107 -9 29 -17 63 -20 77 -2 14 -9 38 -15 53 -6 16 -10 28 -9 28 1 0 -8 34
-20 75 -12 41 -23 80 -25 85 -1 6 -6 21 -12 35 -6 14 -20 54 -32 90 -13 36
-29 79 -36 95 -7 17 -27 66 -45 110 -18 44 -50 117 -71 163 -21 45 -39 86 -40
90 -1 4 -9 18 -18 32 -9 14 -28 49 -41 77 -14 29 -28 53 -32 53 -5 0 -8 9 -8
19 0 11 -4 21 -8 23 -5 2 -23 30 -42 63 -45 79 -158 254 -176 272 -8 8 -14 19
-14 24 0 6 -6 16 -12 23 -7 7 -22 25 -33 40 -33 46 -74 100 -87 116 -7 8 -31
37 -52 65 -22 27 -46 58 -55 67 -9 9 -32 36 -51 59 -40 49 -303 314 -370 374
-37 33 -131 112 -253 211 -9 8 -20 14 -23 14 -2 0 -15 9 -27 21 -32 30 -284
199 -296 199 -6 0 -11 5 -11 10 0 6 -7 10 -15 10 -8 0 -15 4 -15 9 0 5 -8 11
-17 15 -10 3 -40 19 -68 36 -82 49 -262 141 -370 190 -27 12 -68 30 -90 40
-122 55 -474 178 -552 193 -10 2 -25 7 -33 10 -13 4 -82 22 -130 32 -8 2 -35
8 -60 15 -25 6 -58 13 -75 15 -16 2 -41 6 -55 9 -28 7 -122 22 -187 30 -24 4
-60 8 -81 11 l-37 5 0 -4310z m1084 2969 c196 -105 409 -251 591 -403 76 -64
323 -305 360 -352 8 -10 35 -44 60 -74 25 -30 48 -59 53 -65 4 -5 19 -23 33
-40 14 -16 32 -42 40 -57 8 -16 18 -28 23 -28 4 0 13 -10 20 -22 6 -13 19 -35
29 -49 36 -55 108 -173 139 -227 50 -89 163 -321 163 -335 0 -7 4 -17 9 -22 7
-9 60 -141 68 -170 6 -23 45 -142 53 -160 5 -11 11 -31 14 -45 3 -14 14 -61
26 -105 11 -44 22 -91 25 -105 5 -25 11 -54 20 -100 8 -43 15 -84 21 -130 3
-25 8 -56 10 -70 9 -70 15 -136 19 -240 2 -63 7 -125 9 -137 3 -13 0 -23 -5
-23 -6 0 -6 -7 0 -19 6 -10 8 -21 5 -23 -3 -3 -7 -61 -9 -129 -3 -68 -7 -146
-11 -174 -3 -27 -7 -63 -8 -80 -4 -35 -15 -107 -23 -150 -3 -16 -7 -40 -8 -52
-2 -11 -6 -32 -10 -44 -5 -13 -9 -35 -11 -49 -3 -29 -7 -48 -24 -110 -7 -25
-14 -52 -15 -60 -12 -55 -80 -263 -96 -292 -5 -10 -9 -22 -9 -27 0 -4 -10 -30
-22 -57 -12 -27 -23 -53 -24 -59 -1 -5 -17 -41 -35 -80 -18 -38 -34 -72 -34
-75 -2 -11 -117 -224 -124 -230 -3 -3 -15 -22 -26 -42 -11 -21 -23 -38 -27
-38 -5 0 -7 -3 -6 -7 2 -8 -51 -97 -73 -122 -7 -8 -28 -37 -48 -65 -33 -49
-129 -172 -161 -207 -8 -9 -46 -51 -85 -94 -72 -80 -157 -164 -234 -231 -25
-22 -63 -56 -85 -77 -23 -20 -44 -37 -47 -37 -3 0 -17 -10 -30 -21 -13 -12
-58 -47 -99 -77 -41 -31 -78 -60 -81 -65 -3 -5 -10 -9 -15 -9 -10 -1 -56 -29
-64 -39 -3 -3 -15 -9 -27 -13 -13 -4 -23 -11 -23 -14 0 -4 -21 -19 -47 -32
-27 -14 -49 -28 -51 -32 -2 -5 -7 -8 -11 -8 -4 0 -45 -20 -91 -45 -46 -25 -87
-45 -91 -45 -4 0 -7 1359 -7 3020 0 1661 2 3020 5 3020 3 0 49 -23 102 -51z"/>
</g>
</svg>
