<?xml version="1.0" encoding="utf-8"?>
<!-- Generator: Adobe Illustrator 14.0.0, SVG Export Plug-In . SVG Version: 6.00 Build 43363)  -->
<!DOCTYPE svg PUBLIC "-//W3C//DTD SVG 1.1//EN" "http://www.w3.org/Graphics/SVG/1.1/DTD/svg11.dtd">
<svg version="1.1" id="Layer_1" xmlns="http://www.w3.org/2000/svg" xmlns:xlink="http://www.w3.org/1999/xlink" x="0px" y="0px"
	 width="444.226px" height="448.901px" viewBox="0 0 444.226 448.901" enable-background="new 0 0 444.226 448.901"
	 xml:space="preserve">
<g>
	<path fill="#CE0000" d="M148.914,72.293v302.452c-19.317-9.422-36.832-22.567-51.499-38.891
		c-27.744-30.879-43.023-70.773-43.023-112.335c0-41.562,15.279-81.456,43.023-112.334C112.083,94.86,129.597,81.716,148.914,72.293
		 M197.742,7.929C89.587,20.253,5.563,112.066,5.563,223.519c0,111.454,84.023,203.267,192.178,215.59V7.929L197.742,7.929z"/>
	<path fill="#CE0000" d="M296.238,72.293c19.316,9.423,36.832,22.567,51.5,38.891c27.745,30.879,43.024,70.773,43.024,112.334
		s-15.279,81.457-43.024,112.334c-14.667,16.324-32.183,29.469-51.5,38.892V72.293 M247.41,7.929v431.18
		c108.155-12.324,192.179-104.137,192.179-215.59C439.589,112.066,355.565,20.253,247.41,7.929L247.41,7.929z"/>
</g>
</svg>
